<?xml version="1.0" encoding="UTF-8"?>
<svg width="1075px" height="392px" viewBox="0 0 1075 392" version="1.1" xmlns="http://www.w3.org/2000/svg" xmlns:xlink="http://www.w3.org/1999/xlink">
    <title>arto-site-logo-reverse.png</title>
    <g id="arto-site-logo-reverse.png" stroke="none" stroke-width="1" fill="none" fill-rule="evenodd">
        <g id="Arto-Logo" transform="translate(29, 0)">
            <ellipse id="Oval" stroke="#FFFFFF" stroke-width="40.6569197" cx="949.334649" cy="227.732397" rx="75.6653512" ry="75.6234034"></ellipse>
            <g id="Group" transform="translate(590.8875, 82.1952)" fill="#FFFFFF" fill-rule="nonzero">
                <path d="M104.880957,93.9400929 C101.353613,92.7713502 96.4843458,91.5451283 90.273154,90.2422675 C84.042792,88.9585665 76.8347423,88.3071361 68.6298347,88.3071361 C63.9331002,88.3071361 58.9488105,88.786129 53.6769657,89.7057954 C48.3859505,90.6446216 44.7052443,91.4684894 42.5965063,92.1773989 L42.5965063,239.611422 L0,239.611422 L0,64.3958091 C8.22407795,61.3494141 18.4802125,58.4754566 30.8067442,55.7739365 C43.133276,53.0724163 56.8017319,51.7312361 71.8312823,51.7312361 C74.649323,51.7312361 77.9274519,51.9036736 81.6848395,52.2677082 C85.4422271,52.6125831 89.1996147,53.0915761 92.9570023,53.6663676 C96.6952196,54.2411591 100.356755,54.9500686 103.864929,55.7739365 C107.373102,56.5978043 110.191142,57.3450333 112.319051,58.0539428 L104.938468,93.9400929 L104.880957,93.9400929 Z" id="Path"></path>
                <path d="M139.713473,7.03161617 L182.30998,0 L182.30998,55.601499 L247.795878,55.601499 L247.795878,91.1427742 L182.30998,91.1427742 L182.30998,166.095587 C182.30998,180.867729 184.648762,191.424733 189.345496,197.74744 C194.042231,204.089306 202.017094,207.25066 213.289257,207.25066 C221.034076,207.25066 227.89706,206.445952 233.897378,204.798216 C239.878525,203.15048 244.632771,201.636863 248.160114,200.219044 L255.195631,233.997625 C250.268852,236.105194 243.808446,238.289401 235.833583,240.492769 C227.858719,242.715296 218.46525,243.845719 207.672346,243.845719 C194.521489,243.845719 183.556052,242.102185 174.756864,238.557637 C165.957676,235.03225 158.97967,229.935765 153.822847,223.249024 C148.646854,216.562282 145.023659,208.476882 142.914921,198.973662 C140.787013,189.470442 139.751814,178.626042 139.751814,166.421303 L139.751814,7.03161617 L139.713473,7.03161617 Z" id="Path"></path>
            </g>
            <path d="M468.59991,154.465639 L468.59991,154.465639 C509.068508,154.465639 541.907309,187.305394 541.907309,227.732397 L541.907309,300.999155 L468.59991,300.999155 C428.131312,300.999155 395.292511,268.1594 395.292511,227.732397 L395.292511,227.732397 C395.292511,187.286235 428.150483,154.465639 468.59991,154.465639 Z" id="Path" stroke="#FFFFFF" stroke-width="40.6569197"></path>
            <rect id="Rectangle" fill="#FFFFFF" fill-rule="nonzero" x="113.41176" y="33.318748" width="32.1870091" height="62.2690805"></rect>
            <path d="M129.49568,104.152222 L129.49568,104.152222 C200.962725,104.152222 258.991359,162.148686 258.991359,233.576111 L258.991359,363 L129.49568,363 C58.0286339,363 0,305.003536 0,233.576111 L0,233.576111 C0,162.148686 58.0286339,104.152222 129.49568,104.152222 Z" id="Path" stroke="#FFFFFF" stroke-width="56.0038531"></path>
            <ellipse id="Oval" fill="#FFFFFF" fill-rule="nonzero" cx="79.3460575" cy="246.202365" rx="27.3752525" ry="27.360076"></ellipse>
            <ellipse id="Oval" fill="#FFFFFF" fill-rule="nonzero" cx="185.415576" cy="246.202365" rx="27.3752525" ry="27.360076"></ellipse>
            <ellipse id="Oval" fill="#FFFFFF" fill-rule="nonzero" cx="129.49568" cy="27.360076" rx="27.3752525" ry="27.360076"></ellipse>
        </g>
    </g>
</svg>