<?xml version="1.0" encoding="UTF-8"?>
<svg id="Layer_2" xmlns="http://www.w3.org/2000/svg" xmlns:xlink="http://www.w3.org/1999/xlink" viewBox="0 0 738.77 729">
  <defs>
    <style>
      .cls-1 {
        stroke: #79d9d1;
      }

      .cls-1, .cls-2, .cls-3, .cls-4 {
        fill: none;
      }

      .cls-1, .cls-3, .cls-4 {
        stroke-miterlimit: 10;
        stroke-width: 12px;
      }

      .cls-5 {
        fill: #008587;
      }

      .cls-6 {
        fill: #38ada3;
      }

      .cls-3 {
        stroke: #008587;
      }

      .cls-7 {
        fill: #79d9d1;
      }

      .cls-8 {
        clip-path: url(#clippath);
      }

      .cls-4 {
        stroke: #38ada3;
      }
    </style>
    <clipPath id="clippath">
      <rect class="cls-2" width="738.77" height="729"/>
    </clipPath>
  </defs>
  <g id="Layer_1-2" data-name="Layer_1">
    <g class="cls-8">
      <path class="cls-5" d="M621.38,721.43v-54.12c0-29.89,24.93-54.12,55.69-54.12,30.76,0,55.69,24.23,55.69,54.12s-24.93,54.12-55.69,54.12h-55.69Z"/>
      <path class="cls-3" d="M621.38,721.43v-54.12c0-29.89,24.93-54.12,55.69-54.12,30.76,0,55.69,24.23,55.69,54.12s-24.93,54.12-55.69,54.12h-55.69Z"/>
      <path class="cls-5" d="M251.21,721.43v-54.12c0-29.89,24.93-54.12,55.69-54.12,30.76,0,55.69,24.23,55.69,54.12s-24.93,54.12-55.69,54.12h-55.69Z"/>
      <path class="cls-4" d="M251.21,721.43v-54.12c0-29.89,24.93-54.12,55.69-54.12,30.76,0,55.69,24.23,55.69,54.12s-24.93,54.12-55.69,54.12h-55.69Z"/>
      <path class="cls-5" d="M621.38,480.94v-54.12c0-29.89,24.93-54.12,55.69-54.12s55.69,24.23,55.69,54.12-24.93,54.12-55.69,54.12h-55.69Z"/>
      <path class="cls-3" d="M621.38,480.94v-54.12c0-29.89,24.93-54.12,55.69-54.12s55.69,24.23,55.69,54.12-24.93,54.12-55.69,54.12h-55.69Z"/>
      <path class="cls-5" d="M621.38,238.25v-54.12c0-29.89,24.93-54.12,55.69-54.12s55.69,24.23,55.69,54.12-24.93,54.12-55.69,54.12h-55.69Z"/>
      <path class="cls-3" d="M621.38,238.25v-54.12c0-29.89,24.93-54.12,55.69-54.12s55.69,24.23,55.69,54.12-24.93,54.12-55.69,54.12h-55.69Z"/>
      <path class="cls-5" d="M127.82,237.59v-54.12c0-29.89,24.93-54.12,55.69-54.12s55.69,24.23,55.69,54.12-24.93,54.12-55.69,54.12h-55.69Z"/>
      <path class="cls-1" d="M127.82,237.59v-54.12c0-29.89,24.93-54.12,55.69-54.12s55.69,24.23,55.69,54.12-24.93,54.12-55.69,54.12h-55.69Z"/>
      <path class="cls-6" d="M732.77,492.94v54.12c0,29.89-24.94,54.12-55.7,54.12s-55.69-24.23-55.69-54.12,24.93-54.12,55.69-54.12h55.7Z"/>
      <path class="cls-4" d="M732.77,492.94v54.12c0,29.89-24.94,54.12-55.7,54.12s-55.69-24.23-55.69-54.12,24.93-54.12,55.69-54.12h55.7Z"/>
      <path class="cls-7" d="M251.21,601.18v-54.12c0-29.89,24.93-54.12,55.69-54.12s55.69,24.23,55.69,54.12-24.93,54.12-55.69,54.12h-55.69Z"/>
      <path class="cls-3" d="M251.21,601.18v-54.12c0-29.89,24.93-54.12,55.69-54.12s55.69,24.23,55.69,54.12-24.93,54.12-55.69,54.12h-55.69Z"/>
      <path class="cls-7" d="M621.38,360.69v-54.12c0-29.89,24.93-54.12,55.69-54.12s55.69,24.23,55.69,54.12-24.93,54.12-55.69,54.12h-55.69Z"/>
      <path class="cls-1" d="M621.38,360.69v-54.12c0-29.89,24.93-54.12,55.69-54.12s55.69,24.23,55.69,54.12-24.93,54.12-55.69,54.12h-55.69Z"/>
      <path class="cls-5" d="M621.38,118.01v-54.12c0-29.89,24.93-54.12,55.69-54.12s55.69,24.23,55.69,54.12h0c0,29.89-24.93,54.12-55.69,54.12h-55.69Z"/>
      <path class="cls-1" d="M619.81,117.24v-54.12c0-29.89,24.93-54.12,55.69-54.12s55.69,24.23,55.69,54.12h0c0,29.89-24.93,54.12-55.69,54.12h-55.69Z"/>
      <path class="cls-6" d="M252.78,250.87h54.12c29.89,0,54.12,24.94,54.12,55.7s-24.23,55.69-54.12,55.69-54.12-24.93-54.12-55.69v-55.7Z"/>
      <path class="cls-1" d="M252.78,250.87h54.12c29.89,0,54.12,24.94,54.12,55.7s-24.23,55.69-54.12,55.69-54.12-24.93-54.12-55.69v-55.7Z"/>
      <path class="cls-5" d="M497.99,598.99v-54.12c0-29.89,24.93-54.12,55.69-54.12,30.76,0,55.69,24.23,55.69,54.12s-24.93,54.12-55.69,54.12h-55.69Z"/>
      <path class="cls-3" d="M497.99,598.99v-54.12c0-29.89,24.93-54.12,55.69-54.12,30.76,0,55.69,24.23,55.69,54.12s-24.93,54.12-55.69,54.12h-55.69Z"/>
      <path class="cls-6" d="M607.8,117.39h-54.12c-29.89,0-54.12-24.93-54.12-55.69s24.23-55.69,54.12-55.69,54.12,24.93,54.12,55.69v55.69Z"/>
      <path class="cls-4" d="M607.8,117.39h-54.12c-29.89,0-54.12-24.93-54.12-55.69s24.23-55.69,54.12-55.69,54.12,24.93,54.12,55.69v55.69Z"/>
      <path class="cls-7" d="M499.56,371.12h54.12c29.89,0,54.12,24.94,54.12,55.7,0,30.76-24.23,55.69-54.12,55.69s-54.12-24.93-54.12-55.69v-55.7Z"/>
      <path class="cls-3" d="M499.56,371.12h54.12c29.89,0,54.12,24.94,54.12,55.7,0,30.76-24.23,55.69-54.12,55.69s-54.12-24.93-54.12-55.69v-55.7Z"/>
      <path class="cls-5" d="M497.99,238.25v-54.12c0-29.89,24.93-54.12,55.69-54.12s55.69,24.23,55.69,54.12-24.93,54.12-55.69,54.12h-55.69Z"/>
      <path class="cls-3" d="M497.99,238.25v-54.12c0-29.89,24.93-54.12,55.69-54.12s55.69,24.23,55.69,54.12-24.93,54.12-55.69,54.12h-55.69Z"/>
      <path class="cls-7" d="M127.82,480.94v-54.12c0-29.89,24.93-54.12,55.69-54.12s55.69,24.23,55.69,54.12-24.93,54.12-55.69,54.12h-55.69Z"/>
      <path class="cls-3" d="M127.82,480.94v-54.12c0-29.89,24.93-54.12,55.69-54.12s55.69,24.23,55.69,54.12-24.93,54.12-55.69,54.12h-55.69Z"/>
      <path class="cls-5" d="M377.19,613.91h54.12c29.89,0,54.12,24.94,54.12,55.69,0,30.76-24.23,55.69-54.12,55.69s-54.12-24.93-54.12-55.69v-55.69Z"/>
      <path class="cls-3" d="M374.38,611.61h54.12c29.89,0,54.12,24.94,54.12,55.69,0,30.76-24.23,55.69-54.12,55.69s-54.12-24.93-54.12-55.69v-55.69Z"/>
      <path class="cls-5" d="M114.25,723h-54.12c-29.89,0-54.12-24.93-54.12-55.69s24.23-55.69,54.12-55.69,54.12,24.93,54.12,55.69v55.69Z"/>
      <path class="cls-3" d="M114.25,723h-54.12c-29.89,0-54.12-24.93-54.12-55.69s24.23-55.69,54.12-55.69,54.12,24.93,54.12,55.69v55.69Z"/>
      <path class="cls-5" d="M374.6,480.94v-54.12c0-29.89,24.93-54.12,55.69-54.12s55.69,24.23,55.69,54.12-24.93,54.12-55.69,54.12h-55.69Z"/>
      <path class="cls-3" d="M374.6,480.94v-54.12c0-29.89,24.93-54.12,55.69-54.12s55.69,24.23,55.69,54.12-24.93,54.12-55.69,54.12h-55.69Z"/>
      <path class="cls-6" d="M374.6,601.18v-54.12c0-29.89,24.93-54.12,55.69-54.12s55.69,24.23,55.69,54.12-24.93,54.12-55.69,54.12h-55.69Z"/>
      <path class="cls-4" d="M374.6,601.18v-54.12c0-29.89,24.93-54.12,55.69-54.12s55.69,24.23,55.69,54.12-24.93,54.12-55.69,54.12h-55.69Z"/>
      <path class="cls-6" d="M374.6,360.69v-54.12c0-29.89,24.93-54.12,55.69-54.12s55.69,24.23,55.69,54.12-24.93,54.12-55.69,54.12h-55.69Z"/>
      <path class="cls-3" d="M374.6,360.69v-54.12c0-29.89,24.93-54.12,55.69-54.12s55.69,24.23,55.69,54.12-24.93,54.12-55.69,54.12h-55.69Z"/>
    </g>
  </g>
</svg>